<svg xmlns="http://www.w3.org/2000/svg" enable-background="new 0 0 1080 1080" viewBox="0 0 1080 1080"><path fill="#cce9ff" d="M1020.8 320.8c-13.6-23.1-35.5-41.3-60.8-50.2-10.9-3.8-24-5.6-32.9 1.7-8.9 7.3-5.8 26 5.7 25.7-35.5-24.6-78.3-38.5-121.5-39.6-10.8-.3-23.1.9-29.9 9.3-6.9 8.4-1.1 25 9.5 23.1-32.6-20.9-75.6-14.5-112.1-1.5-10.6 3.8-21.1 8-31.6 12.2-11.5 4.6-8.1 21.7 4.3 21.6l369.3-2.3zM93.1 201.6c-13.6 3.3-27.4-8-24.5-17.5 2.9-9.5 16.1-16 29.4-19.9 30.1-8.8 65.8-8.7 95.8.3-7-3.6-6.4-11.2-.9-15.7 5.6-4.5 14.5-6.5 23.1-7.6 41-5.2 85.9 6.8 110 29.6-7.9-5.6-3.6-15.6 5.9-19.8s22.1-4.2 33.4-2.8c48.6 5.8 89.8 23.5 99.1 55.9l-371.3-2.5z"/><path fill="#f7f7f7" d="M71 959.6c39.1-75.2 82.1-148.4 128.8-219.1 18.8-28.5 40-58.1 71.6-71.2 27.7-11.5 60.1-8.1 87.4 4.5 27.2 12.6 49.8 33.7 68.5 57.2 16.1 20.1 33.3 44.3 59 46.4 27.4 2.3 49.1-21.7 66-43.5 55.5-71.5 111-143.1 166.5-214.6 18.4-23.7 41.1-49.6 71-49.5 26.8.1 48.5 21.3 65.2 42.3 98 122.9 136.2 281.6 171.7 434.6L71 959.6z"/><circle cx="977.4" cy="745.5" r="71.6" fill="#cef"/><path fill="#b6eaff" d="M977 943.1c-1.1-.2-1.8-1.2-1.8-2.3V767.5c0-1.2.9-2.3 2.1-2.3 1.3-.1 2.3.9 2.3 2.2V941c0 1.3-1.2 2.4-2.6 2.1z"/><path fill="#b6eaff" d="M977.4 781.9c-.6 0-1.1-.2-1.6-.6-.9-.9-.9-2.3 0-3.1l19.6-19.6c.9-.9 2.3-.9 3.1 0 .9.9.9 2.3 0 3.1L979 781.3c-.5.4-1 .6-1.6.6zM977.4 800.1c-.6 0-1.1-.2-1.6-.6-.9-.9-.9-2.3 0-3.1l19.6-19.6c.9-.9 2.3-.9 3.1 0 .9.9.9 2.3 0 3.1L979 799.5c-.5.4-1 .6-1.6.6z"/><circle cx="155.5" cy="714.8" r="110.9" fill="#b0e1ff"/><path fill="#cef" d="M155.5 933.9c-1.4 0-2.5-1.1-2.5-2.5V714.8c0-1.4 1.1-2.5 2.5-2.5s2.5 1.1 2.5 2.5v216.5c.1 1.4-1.1 2.6-2.5 2.6z"/><path fill="#cef" d="M155.5 774.7c-.6 0-1.3-.2-1.8-.7l-31-31c-1-1-1-2.6 0-3.6s2.6-1 3.6 0l31 31.1c1 1 1 2.6 0 3.6-.5.4-1.1.6-1.8.6zM155.5 803.6c-.6 0-1.3-.2-1.8-.7l-31-31c-1-1-1-2.6 0-3.6s2.6-1 3.6 0l31 31c1 1 1 2.6 0 3.6-.5.4-1.1.7-1.8.7z"/><path fill="#f2f2f2" d="M89.5 922.1h918.7c14.5 0 26.2 11.7 26.2 26.2v32.8c0 14.5-11.7 26.2-26.2 26.2H89.5c-14.5 0-26.2-11.7-26.2-26.2v-32.8c0-14.4 11.7-26.2 26.2-26.2z"/><circle cx="712.2" cy="328.3" r="152.6" fill="none" stroke="#ffbe55" stroke-miterlimit="10"/><path fill="#2a94f4" d="M688.4 504.7c31.5 15.4 22.3 44.9 22.3 44.9s-17.6 25.4-49.2 10c-31.5-15.4-65-65.8-65-65.8s60.4-4.5 91.9 10.9z"/><path fill="#cce9ff" d="M688.4 504.7c31.5 15.4 22.3 44.9 22.3 44.9l-114.2-55.8s60.4-4.5 91.9 10.9z"/><path fill="#2a94f4" d="M738.6 669.8c-31.5 15.4-22.3 44.9-22.3 44.9s17.6 25.4 49.2 10c31.5-15.4 65-65.8 65-65.8s-60.3-4.5-91.9 10.9z"/><path fill="#cce9ff" d="M738.6 669.8c-31.5 15.4-22.3 44.9-22.3 44.9l114.2-55.8s-60.3-4.5-91.9 10.9zM811.5 932.3c-40.1 50.1-100.8 27.3-100.8 27.3s-35.6-54.2 4.5-104.4S867 764.1 867 764.1s-15.4 118-55.5 168.2z"/><path fill="#2a94f4" d="M811.5 932.3c-40.1 50.1-100.8 27.3-100.8 27.3L867 764.1s-15.4 118-55.5 168.2z"/><path fill="#cce9ff" d="M613.6 932.3c40.1 50.1 100.8 27.3 100.8 27.3s35.6-54.2-4.5-104.4c-40.1-50.1-151.8-91.1-151.8-91.1s15.4 118 55.5 168.2z"/><path fill="#2a94f4" d="M613.6 932.3c40.1 50.1 100.8 27.3 100.8 27.3L558.1 764.1s15.4 118 55.5 168.2z"/><path fill="#fcd2b1" d="m512.8 538-28.7 9.2-4.2-2-8.1-8 .8-13.1 15.9-.4 24.3 14.3z"/><path fill="#1d87d6" d="M417.2 370s-9.8 113.2 71.2 153.7c-3.3 3.9-16.9 10.1-16.9 10.1s-79.3-48.1-76.5-101.5 22.2-62.3 22.2-62.3z"/><path fill="#0b4870" d="M263.7 886.1s10.6 49 18.4 71.1c.9 2.6-2.4 4.7-4.3 2.8-13.1-12.9-31.3-39-37.3-45-7.5-7.5-19-21.5-19-21.5l27.5-24.2 18.1 9.1-3.4 7.7z"/><path fill="#083751" d="M362.1 922.1s43.7 24.4 65.5 33.3c2.6 1.1 2 4.9-.8 5.1-18.3 1.3-50-2.3-58.4-1.8-10.5.7-28.7 0-28.7 0v-36.6l18.8-7.6 3.6 7.6z"/><path fill="#083751" d="M406.4 498.3s-4.2 218.7-6.6 223.6c-2.4 4.8-37.7 200.3-37.7 200.3h-22.4s4-204.3 12.8-211.9c0-18-6.1-210.2 11-223.9 25-1.5 42.9 11.9 42.9 11.9z"/><path fill="#0b4870" d="M330.6 477.2c-32.3 23.8-38.8 135-5.9 220.9-21.5 38.6-85.8 191.7-85.8 191.7l19 11.4S389 720.9 384 702.3c-5-18.6 4.5-217.5 4.5-217.5l-57.9-7.6z"/><path fill="#2a94f4" d="M423.3 344.9c.7 2.7 1.6 5.4 2.7 8 7 16.6 16.6 50.9 15.9 56.6-.8 6.2-22.7 27.3-28.5 43.4s-6.8 45.4-6.8 45.4l-75.8-21.1s21.1-52 21.9-75.5 8.9-72.1 38.8-77c22.8-3.8 29.8 12.6 31.8 20.2z"/><path fill="#0b4870" d="M446.4 245.7c1.4-3.5.9-7.5-1.3-10.6-11.4-15.5-31.9-24.2-50.9-20.8-21.1 3.8-38.8 22-42 43.2-1.2 8.2-.5 16.6-2.2 24.7-2 9.5-7.5 18.3-15.2 24.2-9.6 7.4-22 10.2-32.7 16-10.8 5.9-19.7 14.7-27.3 24.4-7.6 9.7-14.2 20.6-16.3 32.8s.9 25.7 10 34c5.8 5.3 13.3 8 20.7 10.5 14.8 5 30.3 9.5 45.8 7.8 15.5-1.7 31.2-10.9 36-25.8 6.7-21-9.8-43.1-6.8-64.9 2.1-14.8 12.9-27 24.9-35.9s25.6-15.7 37-25.3c8.5-7.1 16.6-25.3 20.3-34.3z"/><path fill="#fcd2b1" d="M425.9 308.5c-3.8 7.8-7.3 28.3-4 37 3 8.6 1.9 10 1.9 10l-33.3-27.3 7.7-37.5 27.7 17.8z"/><path fill="#ffe3ca" d="M453 277c0 19.3-5 39-21 39s-37-19.7-37-39 13-35 29-35 29 15.7 29 35z"/><path fill="#0b4870" d="M451.3 238.5c5.7-.5 9.6 5.6 6.8 10.5-5.5 9.9-15.3 19.8-38.1 17-10.4-1.3-27 0-28 7l-8-19s2-12 4-12h21.8l41.5-3.5z"/><path fill="#0b4870" d="M408 264c-3 6-4.6 16.7-8.6 18.7-5-2.9-11.2-18-10.8-17.9.4.1 5.4-2.9 6.4-2.9s13 2.1 13 2.1z"/><ellipse cx="396.8" cy="284.1" fill="#ffe3ca" rx="5.6" ry="9" transform="rotate(-24.199 396.775 284.07)"/><circle cx="397.9" cy="293.4" r="5.2" fill="#ffbe55"/><path fill="#2a94f4" d="m479.8 652.8-62.1-54.9c-2.2-1.9-2.4-5.3-.5-7.5l38.5-47.5c1.9-2.2 5.3-2.4 7.5-.5l66 58.3c2.2 1.9 2.4 5.3.5 7.5l-42.4 44.1c-2 2.2-5.3 2.4-7.5.5z"/><path fill="#2a94f4" d="m540.9 670.5-56.8-26.3 14.7-17 46.8 31.1.7.5-5.4 11.7zM518.1 545.6c7 6 9.3 17.1 6.4 31.3l-5.2 25.7-57.9-50.1 25.6-8.9c13.2-4.7 24.2-4 31.1 2m3.3-3.8c-8-6.9-20.6-8.4-36.1-3l-33.7 11.8 71 61.3 6.9-34.1c3.3-16.5 0-29-8.1-36z"/><path fill="#2286d1" d="M540.9 670.5c-3.6-6.7.1-10.3 4.7-12.2l.7.5-5.4 11.7z"/><path fill="#49b0fc" d="M374.4 352c-1.4 45.4 17 161.8 51.5 207.7 5.9-3.1 12.3-6.6 12.3-6.6s-44-101.2-29.9-186.2c1.5-10.5 0-18-3.2-23.2-8.4-14.1-30.2-8-30.7 8.3z"/><path fill="#fcd2b1" d="M425.9 559.8s9.9 20.5 12.3 22.7c2.3 2.2 19.3 11.3 24.1 13.1 4.8 1.7-6.5-8.6-6.5-8.6s8.8 5.6 12.9 7.8c.6.3 1.1-.4.7-.9-3.1-3.7-10.7-9.7-10.7-9.7s11.9 7.1 17.2 9.9c.6.3 1.1-.4.7-.9-3.8-3.6-12.4-10.3-13.9-11.1 6.3 2.7 10.8 5.3 13.6 6.6.4.2.7-.3.4-.6-5.5-5-28.9-21.6-30.1-21.9-4.8-1.1-9.3-12.5-9.3-12.5l-11.4 6.1z"/><path fill="#ffe4d2" d="m484.1 547.2-4.2-2-.5-.7s11.3-11.5 14.2-12.8c1.9-.8 9.9 2.3 15 4.4 1.5.6 1.4 2.8-.2 3.3l-24.3 7.8z"/><path fill="#2a94f4" d="M709.3 411.2h5.8v549.6h-5.8z"/><path fill="#ffbe55" d="M604 189.4c-12.3 0-22.2 10-22.2 22.2 0-12.3-10-22.2-22.2-22.2 12.3 0 22.2-10 22.2-22.2-.1 12.2 9.9 22.2 22.2 22.2z"/><path fill="none" stroke="#ffbe55" stroke-miterlimit="10" d="M614.6 189.4c-18.2 0-32.9 14.7-32.9 32.9 0-18.2-14.7-32.9-32.9-32.9 18.2 0 32.9-14.7 32.9-32.9 0 18.2 14.8 32.9 32.9 32.9z"/><path fill="#ffbe55" d="M895.1 370c-7.1 0-12.9 5.8-12.9 12.8 0-7.1-5.8-12.8-12.8-12.8 7.1 0 12.8-5.8 12.8-12.8 0 7 5.8 12.8 12.9 12.8z"/><path fill="none" stroke="#ffbe55" stroke-miterlimit="10" stroke-width=".75" d="M901.2 370c-10.5 0-19 8.5-19 19 0-10.5-8.5-19-19-19 10.5 0 19-8.5 19-19 0 10.5 8.5 19 19 19z"/><path fill="none" stroke="#cce9ff" stroke-dasharray="12 14" stroke-miterlimit="10" d="m554 664.4 138.9 65.3M546.3 677.2l90 171.8M574.5 694l118.4 155M601.9 705.3l94.2 71.2"/><path fill="#0e538c" d="M689.8 429.8h44.3v22.1c0 12.2-9.9 22.1-22.1 22.1-12.2 0-22.1-9.9-22.1-22.1v-22.1z"/><circle cx="712.2" cy="328.3" r="124.2" fill="#ffbe55"/><circle cx="712.2" cy="328.3" r="93.2" fill="none" stroke="#f7f7f7" stroke-miterlimit="10"/><path fill="#f7f7f7" d="M716.8 288.8c8.4 1.6 13.4 7.9 13.4 17.9v1.6l-11.6 1.1v-1.8c0-5.6-2-8.2-6.4-8.2-3.6 0-6.1 2.2-6.1 6.7v1.5c0 4.4 2.4 8.1 10.2 15.2 10.7 9.9 14.4 16.3 14.4 24.9v1.9c0 10-5.4 16.1-13.9 17.6v8.3h-9.5v-8.3c-8.4-1.8-13.7-8.1-13.7-17.9v-4.5l11.6-1.1v4.8c0 5.6 2.3 8.2 7 8.2 3.5 0 6.6-2.2 6.6-6.7v-1.7c0-4.4-2.4-8.1-10.2-15.2-10.7-9.9-14.4-16.3-14.4-24.9v-1.7c0-9.9 4.9-16 13.2-17.6v-7.1h9.5v7z"/></svg>