<svg xmlns="http://www.w3.org/2000/svg" version="1.1" xmlns:xlink="http://www.w3.org/1999/xlink" xmlns:svgjs="http://svgjs.dev/svgjs" width="1000" height="1000" viewBox="0 0 1000 1000"><g transform="matrix(1,0,0,1,-0.14221556886212738,-0.14221556886229791)"><svg viewBox="0 0 334 334" data-background-color="#ffffff" preserveAspectRatio="xMidYMid meet" height="1000" width="1000" xmlns="http://www.w3.org/2000/svg" xmlns:xlink="http://www.w3.org/1999/xlink"><g id="tight-bounds" transform="matrix(1,0,0,1,0.04749999999998522,0.04750000000001364)"><svg viewBox="0 0 333.90454557049503 333.90454557049503" height="333.90454557049503" width="333.90454557049503"><g><svg></svg></g><g><svg viewBox="0 0 333.90454557049503 333.90454557049503" height="333.90454557049503" width="333.90454557049503"><g><path d="M0 166.952c0-92.205 74.747-166.952 166.952-166.952 92.205 0 166.952 74.747 166.953 166.952 0 92.205-74.747 166.952-166.953 166.953-92.205 0-166.952-74.747-166.952-166.953zM166.952 326.985c88.384 0 160.033-71.649 160.033-160.033 0-88.384-71.649-160.033-160.033-160.033-88.384 0-160.033 71.649-160.033 160.033 0 88.384 71.649 160.033 160.033 160.033z" data-fill-palette-color="tertiary" fill="#4b91f1" stroke="transparent"></path><ellipse rx="160.27418187383762" ry="160.27418187383762" cx="166.95227278524752" cy="166.95227278524752" fill="#4b91f1" stroke="transparent" stroke-width="0" fill-opacity="1" data-fill-palette-color="tertiary"></ellipse></g><g transform="matrix(1,0,0,1,83.35138319757206,71.17305217166896)"><svg viewBox="0 0 167.2017791753509 191.55844122715712" height="191.55844122715712" width="167.2017791753509"><g><svg viewBox="0 0 167.2017791753509 191.55844122715712" height="191.55844122715712" width="167.2017791753509"><g><svg viewBox="0 0 213.1584412271571 244.20971437787398" height="191.55844122715712" width="167.2017791753509"><g transform="matrix(1,0,0,1,0,146.3955688675561)"><svg viewBox="0 0 213.1584412271571 97.81414551031786" height="97.81414551031786" width="213.1584412271571"><g><svg viewBox="0 0 213.1584412271571 97.81414551031786" height="97.81414551031786" width="213.1584412271571"><g><svg viewBox="0 0 213.1584412271571 97.81414551031786" height="97.81414551031786" width="213.1584412271571"><g transform="matrix(1,0,0,1,0,0)"><svg width="213.1584412271571" viewBox="3.690000057220459 -35.0099983215332 76.29000091552734 35.0099983215332" height="97.81414551031786" data-palette-color="#ffffff"><path d="M38.67-27.29L38.67-23.24Q38.67-21.07 38.13-19.36 37.6-17.65 36.68-16.35 35.77-15.04 34.57-14.11 33.37-13.18 32.07-12.59 30.76-11.99 29.43-11.72 28.1-11.45 26.93-11.45L26.93-11.45 40.19 0 30.37 0 17.14-11.45 12.57-11.45 12.57-17.8 26.93-17.8Q28.13-17.9 29.11-18.3 30.1-18.7 30.82-19.38 31.54-20.07 31.93-21.03 32.32-22 32.32-23.24L32.32-23.24 32.32-27.25Q32.32-27.78 32.19-28.06 32.06-28.34 31.85-28.48 31.64-28.61 31.41-28.64 31.18-28.66 30.98-28.66L30.98-28.66 10.03-28.66 10.03 0 3.69 0 3.69-31.81Q3.69-32.47 3.93-33.06 4.17-33.64 4.6-34.08 5.03-34.52 5.62-34.77 6.2-35.01 6.88-35.01L6.88-35.01 30.98-35.01Q33.11-35.01 34.57-34.24 36.04-33.47 36.95-32.31 37.87-31.15 38.27-29.81 38.67-28.47 38.67-27.29L38.67-27.29ZM79.98-8.91L79.98-7.69Q79.98-6.52 79.58-5.18 79.17-3.83 78.26-2.69 77.34-1.54 75.88-0.77 74.41 0 72.29 0L72.29 0 48.19 0Q47.51 0 46.92-0.24 46.34-0.49 45.91-0.92 45.48-1.34 45.24-1.93 44.99-2.51 44.99-3.2L44.99-3.2 44.99-31.81Q44.99-32.47 45.24-33.06 45.48-33.64 45.91-34.08 46.34-34.52 46.92-34.77 47.51-35.01 48.19-35.01L48.19-35.01 69.43-35.01Q70.6-35.01 71.95-34.59 73.29-34.18 74.45-33.26 75.61-32.35 76.38-30.88 77.15-29.42 77.15-27.29L77.15-27.29 77.15-26.1Q77.15-24.41 76.58-22.47 76.02-20.53 74.78-18.8L74.78-18.8Q75.85-18.14 76.79-17.21 77.73-16.28 78.44-15.06 79.15-13.84 79.56-12.3 79.98-10.77 79.98-8.91L79.98-8.91ZM73.63-7.74L73.63-8.91Q73.63-10.16 73.24-11.15 72.85-12.13 72.14-12.84 71.43-13.55 70.43-13.93 69.43-14.31 68.19-14.31L68.19-14.31 53.88-14.31 53.88-20.7 65.33-20.7Q66.57-20.7 67.58-21.08 68.58-21.46 69.28-22.17 69.99-22.88 70.37-23.86 70.75-24.85 70.75-26.1L70.75-26.1 70.75-27.29Q70.75-28.66 69.43-28.66L69.43-28.66 51.34-28.66 51.34-6.35 72.29-6.35Q72.46-6.35 72.7-6.37 72.95-6.4 73.14-6.52 73.34-6.64 73.48-6.93 73.63-7.23 73.63-7.74L73.63-7.74Z" opacity="1" transform="matrix(1,0,0,1,0,0)" fill="#ffffff" class="undefined-text-0" data-fill-palette-color="quaternary" id="text-0"></path></svg></g></svg></g></svg></g></svg></g><g transform="matrix(1,0,0,1,40.713262274387006,0)"><svg viewBox="0 0 131.7319166783831 123.30399665206232" height="123.30399665206232" width="131.7319166783831"><g><svg xmlns="http://www.w3.org/2000/svg" xmlns:xlink="http://www.w3.org/1999/xlink" version="1.1" x="0" y="0" viewBox="5 7.879000186920166 90 84.24199676513672" enable-background="new 0 0 100 100" xml:space="preserve" height="123.30399665206232" width="131.7319166783831" class="icon-icon-0" data-fill-palette-color="quaternary" id="icon-0"><path d="M87.397 79.588v-6.574h-6.37V44.937h11.299l0.622-9.934L49.998 7.879 7.057 35.001l0.613 9.935h11.304v28.078h-6.371v6.574H5v12.533h44.998H95V79.588H87.397zM28.53 73.014V44.937h6.679v28.077H28.53zM49.998 73.014h-5.237V44.937h5.237 5.24v28.077H49.998zM64.794 73.014V44.937h6.68v28.077H64.794z" fill="#ffffff" data-fill-palette-color="quaternary"></path></svg></g></svg></g><g></g></svg></g></svg></g></svg></g></svg></g><defs></defs></svg><rect width="333.90454557049503" height="333.90454557049503" fill="none" stroke="none" visibility="hidden"></rect></g></svg></g></svg>